<svg id="Object" xmlns="http://www.w3.org/2000/svg" viewBox="0 0 77 77"><defs><style>.cls-1{fill:#fff;}.cls-2{fill:#616e7d;}.cls-3{fill:#aad4c8;}</style></defs><rect class="cls-1" width="77" height="77"/><path class="cls-2" d="M2.62,2.58A2.78,2.78,0,0,0,.08,5.35V69a2.78,2.78,0,0,0,2.3,2.74L31.44,77a2.78,2.78,0,0,0,3.27-2.74V2.78a2.78,2.78,0,0,0-3-2.77ZM27.09,42.31c-1.19,0-2.16-1.71-2.16-3.81s1-3.81,2.16-3.81,2.17,1.71,2.17,3.81S28.29,42.31,27.09,42.31Z"/><polygon class="cls-3" points="76.92 37.01 54.2 20.14 54.2 28.89 36.55 28.89 36.55 45.02 54.2 45.02 54.2 53.77 76.92 37.01"/><path class="cls-1" d="M24.93,38.5c0,2.1,1,3.81,2.16,3.81s2.17-1.71,2.17-3.81-1-3.81-2.17-3.81S24.93,36.4,24.93,38.5Z"/><path class="cls-2" d="M52.22,26.41V4.64a2.22,2.22,0,0,0-.63-1.54,2.18,2.18,0,0,0-1.53-.63H36.55V6.8H47.89V26.41Z"/><path class="cls-2" d="M36.55,70.19v4.34H50.06a2.15,2.15,0,0,0,1.53-.64,2.18,2.18,0,0,0,.63-1.53v-25H47.89V70.19Z"/></svg>